<svg xmlns="http://www.w3.org/2000/svg" version="1.1" xmlns:xlink="http://www.w3.org/1999/xlink" xmlns:svgjs="http://svgjs.dev/svgjs" width="1000" height="1000" viewBox="0 0 1000 1000"><rect width="1000" height="1000" fill="#ffffff"></rect><g transform="matrix(0.7,0,0,0.7,150.04871994686755,129)"><svg viewBox="0 0 264 280" data-background-color="#ffffff" preserveAspectRatio="xMidYMid meet" height="1060" width="1000" xmlns="http://www.w3.org/2000/svg" xmlns:xlink="http://www.w3.org/1999/xlink"><g id="tight-bounds" transform="matrix(1,0,0,1,-0.018374379961471732,0)"><svg viewBox="0 0 264.03674875992294 280" height="280" width="264.03674875992294"><g><svg viewBox="0 0 278.2696 295.09334729327827" height="280" width="264.03674875992294"><g><svg viewBox="0 0 278.2696 295.09334729327827" height="295.09334729327827" width="278.2696"><g id="textblocktransform"><svg viewBox="0 0 278.2696 295.09334729327827" height="295.09334729327827" width="278.2696" id="textblock"><g><svg viewBox="0 0 278.2696 278.2696" height="278.2696" width="278.2696"><g transform="matrix(1,0,0,1,89.94321971048298,89.94321971048298)"><svg viewBox="0 0 98.38316057903407 98.38316057903407" height="98.38316057903407" width="98.38316057903407"><g><circle r="49" cx="49.191580289517034" cy="49.191580289517034" fill="#d90000" data-fill-palette-color="accent"></circle></g></svg></g><g><path d="M4.773 103.631l-1.012-0.045 1.06-3.592c0.222-0.751 0.529-1.406 0.923-1.966 0.393-0.56 0.892-0.954 1.495-1.18 0.599-0.235 1.328-0.226 2.186 0.028v0c0.785 0.232 1.37 0.614 1.757 1.147 0.387 0.533 0.605 1.149 0.657 1.849 0.053 0.692-0.024 1.39-0.232 2.093v0l-0.375 1.268 4.555 1.345-0.626 2.12zM6.38 100.355l-0.39 1.319 3.744 1.105 0.386-1.308c0.17-0.575 0.12-1.067-0.148-1.478-0.262-0.408-0.667-0.693-1.214-0.855v0c-0.568-0.168-1.064-0.156-1.489 0.035-0.419 0.2-0.716 0.594-0.889 1.182z" fill="#0063db" data-fill-palette-color="primary"></path><path d="M7.988 90.731l0.634-1.649 12.528 0.339-0.858 2.231-3.587-0.132-1.26 3.278 2.745 2.324-0.672 1.748zM15.044 91.448l-4.211-0.304 3.335 2.585z" fill="#0063db" data-fill-palette-color="primary"></path><path d="M12.191 82.989l-0.992-0.208 1.758-3.65c0.312-0.648 0.689-1.202 1.129-1.663 0.438-0.454 0.946-0.746 1.525-0.875 0.585-0.125 1.246-0.011 1.983 0.344v0c0.407 0.196 0.749 0.493 1.025 0.893 0.274 0.39 0.462 0.821 0.564 1.293 0.102 0.472 0.104 0.93 0.006 1.377v0l6.621-0.828-1.093 2.268-6.168 0.67-0.386 0.8 4.747 2.286-0.96 1.991zM14.314 80.019l-0.601 1.248 3.03 1.46 0.45-0.934c0.18-0.375 0.295-0.735 0.343-1.08 0.058-0.348 0.011-0.664-0.141-0.948-0.149-0.291-0.427-0.535-0.835-0.731v0c-0.318-0.153-0.623-0.202-0.915-0.147-0.283 0.052-0.54 0.178-0.77 0.381-0.23 0.202-0.417 0.453-0.561 0.751z" fill="#0063db" data-fill-palette-color="primary"></path><path d="M16.131 72.815v0l1.185-2.148 10.346 5.706-1.073 1.945-9.484-5.231c-0.012-0.007-0.094-0.027-0.244-0.062-0.153-0.044-0.306-0.088-0.459-0.132-0.156-0.054-0.246-0.079-0.271-0.078z" fill="#0063db" data-fill-palette-color="primary"></path><path d="M20.085 67.986l-0.954-0.334 1.323-2.067 4.446 2.844-2.32-6.168 1.112-1.737 2.278 6.016 7.857 0.066-1.391 2.175-7.073-0.055 5.043 3.226-1.197 1.872z" fill="#0063db" data-fill-palette-color="primary"></path><path d="M27.302 55.315v0c0.365-0.484 0.789-0.907 1.272-1.266 0.479-0.354 0.982-0.624 1.51-0.81v0l0.439 1.721c-0.381 0.084-0.751 0.247-1.11 0.489-0.359 0.242-0.651 0.512-0.875 0.81v0c-0.255 0.338-0.398 0.711-0.432 1.119-0.029 0.402 0.142 0.743 0.514 1.022v0c0.248 0.187 0.509 0.286 0.782 0.298 0.274 0.012 0.556-0.036 0.849-0.142 0.296-0.112 0.605-0.246 0.925-0.402v0c0.376-0.194 0.76-0.394 1.155-0.601 0.4-0.202 0.81-0.361 1.232-0.475 0.428-0.111 0.868-0.132 1.32-0.065 0.443 0.069 0.898 0.279 1.365 0.631v0c0.625 0.471 1.041 1.027 1.247 1.667 0.206 0.641 0.233 1.297 0.081 1.968-0.158 0.667-0.458 1.293-0.899 1.879v0c-0.395 0.524-0.845 1.005-1.353 1.444-0.509 0.429-1.067 0.772-1.675 1.029v0l-0.978-1.69c0.501-0.091 0.989-0.27 1.465-0.539 0.477-0.259 0.871-0.593 1.18-1.004v0c0.208-0.276 0.35-0.575 0.425-0.898 0.077-0.313 0.073-0.625-0.011-0.936-0.088-0.305-0.282-0.57-0.58-0.794v0c-0.31-0.233-0.63-0.342-0.96-0.326-0.334 0.022-0.681 0.114-1.041 0.275-0.361 0.152-0.736 0.333-1.124 0.544v0c-0.342 0.184-0.69 0.359-1.044 0.524-0.36 0.161-0.723 0.281-1.091 0.358-0.363 0.071-0.741 0.069-1.134-0.007-0.389-0.081-0.784-0.272-1.183-0.573v0c-0.625-0.471-1.018-1.01-1.179-1.617-0.167-0.611-0.158-1.232 0.025-1.862 0.178-0.634 0.472-1.225 0.883-1.771z" fill="#0063db" data-fill-palette-color="primary"></path><path d="M45.22 52.64l-3.956-3.494-3.284 3.718 3.956 3.494-1.478 1.673-8.118-7.17c-0.011-0.009-0.083-0.05-0.218-0.121-0.14-0.076-0.279-0.153-0.418-0.229-0.145-0.081-0.228-0.126-0.249-0.135v0l1.625-1.839 3.702 3.27 3.284-3.718-3.702-3.27 1.47-1.665 8.856 7.821z" fill="#0063db" data-fill-palette-color="primary"></path><path d="M42.99 38.211l1.293-1.204 11.109 5.799-1.749 1.629-3.165-1.692-2.571 2.394 1.447 3.292-1.37 1.276zM49.016 41.95l-3.651-2.121 1.863 3.787z" fill="#0063db" data-fill-palette-color="primary"></path><path d="M55.482 35.297v0c0.216 0.26 0.313 0.565 0.291 0.913-0.032 0.348-0.181 0.632-0.447 0.853v0c-0.26 0.216-0.567 0.31-0.92 0.283-0.352-0.038-0.636-0.187-0.853-0.448v0c-0.221-0.266-0.315-0.573-0.283-0.92 0.042-0.347 0.191-0.626 0.446-0.837v0c0.266-0.221 0.57-0.318 0.914-0.291 0.348 0.032 0.632 0.181 0.852 0.447zM58.462 38.886v0c0.212 0.255 0.304 0.554 0.277 0.897-0.032 0.348-0.181 0.632-0.447 0.853v0c-0.26 0.216-0.567 0.31-0.92 0.282-0.348-0.032-0.627-0.176-0.839-0.431v0c-0.221-0.266-0.315-0.573-0.283-0.92 0.038-0.352 0.184-0.634 0.439-0.845v0c0.266-0.221 0.573-0.315 0.92-0.283 0.348 0.032 0.632 0.181 0.853 0.447z" fill="#0063db" data-fill-palette-color="primary"></path><path d="M69.726 32.488v0c-0.758 0.49-1.514 0.795-2.269 0.914-0.753 0.109-1.477 0.061-2.172-0.145-0.699-0.211-1.354-0.561-1.963-1.048-0.607-0.497-1.141-1.101-1.6-1.812v0c-0.467-0.722-0.801-1.46-1.002-2.211-0.191-0.75-0.235-1.486-0.131-2.208 0.104-0.722 0.362-1.401 0.773-2.038 0.416-0.63 1.005-1.192 1.769-1.686v0c0.776-0.502 1.542-0.817 2.299-0.945 0.753-0.134 1.48-0.101 2.182 0.101 0.701 0.201 1.357 0.546 1.966 1.033 0.613 0.494 1.159 1.11 1.638 1.851v0c0.471 0.728 0.798 1.474 0.981 2.237 0.189 0.76 0.224 1.501 0.104 2.226-0.11 0.726-0.378 1.408-0.806 2.045-0.427 0.638-1.017 1.2-1.769 1.687zM68.946 31.166v0c0.527-0.341 0.892-0.737 1.097-1.188 0.202-0.441 0.287-0.912 0.257-1.413-0.024-0.505-0.134-1.005-0.329-1.501-0.198-0.502-0.441-0.974-0.728-1.418v0c-0.287-0.444-0.62-0.867-0.998-1.27-0.384-0.398-0.804-0.723-1.26-0.974-0.456-0.251-0.937-0.377-1.441-0.378-0.514-0.003-1.038 0.168-1.571 0.512v0c-0.521 0.337-0.885 0.728-1.093 1.174-0.204 0.451-0.291 0.927-0.26 1.428 0.034 0.507 0.15 1.011 0.349 1.513 0.189 0.499 0.425 0.968 0.708 1.406v0c0.283 0.438 0.622 0.858 1.015 1.258 0.384 0.398 0.804 0.723 1.26 0.974 0.452 0.245 0.933 0.371 1.441 0.378 0.503 0.011 1.02-0.156 1.553-0.501z" fill="#0063db" data-fill-palette-color="primary"></path><path d="M70.619 17.871l2.352-1.231 7.396 4.116c0.185 0.094 0.365 0.195 0.54 0.302 0.185 0.11 0.365 0.219 0.54 0.326v0c-0.107-0.175-0.218-0.348-0.331-0.519-0.123-0.174-0.232-0.352-0.327-0.533v0l-3.198-6.11 1.584-0.829 5.513 10.533-1.546 0.81-8.467-4.726c-0.179-0.113-0.364-0.224-0.555-0.331-0.191-0.107-0.373-0.211-0.545-0.311v0c0.097 0.14 0.198 0.287 0.302 0.439 0.104 0.153 0.198 0.31 0.283 0.473v0l3.723 7.113-1.584 0.829-5.018-9.588z" fill="#0063db" data-fill-palette-color="primary"></path><path d="M83.13 12.716l-0.575-0.826 2.264-0.947 3.943 9.426 4.274-1.788 0.617 1.473-6.343 2.654z" fill="#0063db" data-fill-palette-color="primary"></path><path d="M91.679 8.224v0l2.312-0.824 3.967 11.129-2.092 0.746-3.637-10.202c-0.005-0.013-0.052-0.083-0.142-0.208-0.085-0.134-0.171-0.269-0.256-0.403-0.081-0.143-0.132-0.223-0.152-0.238z" fill="#0063db" data-fill-palette-color="primary"></path><path d="M97.377 6.351l2.556-0.718 6.385 5.556c0.161 0.131 0.317 0.266 0.466 0.408 0.158 0.146 0.312 0.29 0.461 0.431v0c-0.069-0.193-0.141-0.385-0.217-0.577-0.084-0.196-0.154-0.393-0.209-0.589v0l-1.865-6.64 1.721-0.483 3.215 11.446-1.68 0.472-7.306-6.375c-0.151-0.148-0.31-0.294-0.475-0.438-0.165-0.144-0.321-0.283-0.469-0.417v0c0.066 0.157 0.134 0.321 0.204 0.492 0.07 0.171 0.13 0.344 0.18 0.521v0l2.171 7.729-1.721 0.483-2.927-10.417z" fill="#0063db" data-fill-palette-color="primary"></path><path d="M110.704 3.892l-0.422-0.922 7.308-1.379 0.296 1.57-4.896 0.924 0.62 3.284 3.752-0.708 0.296 1.57-3.752 0.708 0.683 3.617 4.895-0.924 0.297 1.57-7.068 1.334z" fill="#0063db" data-fill-palette-color="primary"></path><path d="M126.137 1.569l-0.316-0.963 7.416-0.553 0.119 1.593-4.969 0.37 0.249 3.333 3.808-0.284 0.119 1.593-3.808 0.284 0.273 3.671 4.969-0.37 0.119 1.592-7.173 0.535z" fill="#0063db" data-fill-palette-color="primary"></path><path d="M135.657 0l2.571 0.026 6.915 11.885-2.581-0.026zM135.317 11.812l7.247-11.743 2.253 0.023-7.258 11.743z" fill="#0063db" data-fill-palette-color="primary"></path><path d="M151.029 0.55l1.759 0.16 3.088 12.146-2.381-0.217-0.85-3.487-3.498-0.319-1.488 3.274-1.864-0.17zM152.261 7.535l-0.855-4.136-1.578 3.914z" fill="#0063db" data-fill-palette-color="primary"></path><path d="M159.661 1.501l3.047 0.564 1.242 7.125c0.059 0.341 0.091 0.673 0.096 0.996 0.003 0.331 0.006 0.664 0.008 1.002v0c0.152-0.316 0.276-0.619 0.373-0.91 0.104-0.289 0.239-0.576 0.406-0.86v0l3.669-6.282 2.798 0.518-2.146 11.597-2.142-0.396 1.456-7.874c0.035-0.187 0.08-0.376 0.137-0.566 0.058-0.197 0.107-0.385 0.148-0.564v0c-0.098 0.183-0.193 0.362-0.283 0.539-0.098 0.183-0.199 0.361-0.303 0.535v0l-4.3 7.37-1.176-0.218-1.462-8.435c-0.042-0.201-0.072-0.404-0.092-0.608-0.028-0.199-0.055-0.401-0.081-0.607v0c-0.019 0.183-0.037 0.377-0.054 0.582-0.015 0.198-0.04 0.391-0.075 0.577v0l-1.456 7.874-1.737-0.321 1.966-10.63z" fill="#0063db" data-fill-palette-color="primary"></path><path d="M174.587 4.508v0l2.373 0.627-3.018 11.423-2.148-0.567 2.767-10.472c0.004-0.014 0.004-0.097 0.001-0.252 0.006-0.159 0.011-0.318 0.016-0.477 0.014-0.164 0.017-0.258 0.009-0.282z" fill="#0063db" data-fill-palette-color="primary"></path><path d="M180.347 6.183l2.514 0.853 2.126 8.192c0.059 0.199 0.111 0.399 0.154 0.6 0.048 0.21 0.094 0.415 0.138 0.616v0c0.052-0.198 0.101-0.398 0.146-0.598 0.041-0.209 0.095-0.411 0.161-0.605v0l2.214-6.531 1.693 0.574-3.817 11.26-1.653-0.561-2.424-9.388c-0.041-0.208-0.089-0.417-0.144-0.63-0.055-0.212-0.105-0.415-0.151-0.609v0c-0.034 0.167-0.071 0.341-0.11 0.521-0.039 0.18-0.088 0.357-0.146 0.531v0l-2.578 7.603-1.693-0.573 3.474-10.249z" fill="#0063db" data-fill-palette-color="primary"></path><path d="M196.047 12.118l1.61 0.728-1.057 12.487-2.179-0.984 0.338-3.573-3.2-1.446-2.478 2.606-1.706-0.77zM194.926 19.122l0.546-4.188-2.773 3.182z" fill="#0063db" data-fill-palette-color="primary"></path><path d="M199.388 26.857l4.865-8.986-2.884-1.561 0.761-1.405 7.832 4.241-0.761 1.404-2.92-1.581-4.865 8.986z" fill="#0063db" data-fill-palette-color="primary"></path><path d="M212.2 20.492v0l2.091 1.284-6.182 10.069-1.893-1.163 5.668-9.23c0.007-0.012 0.032-0.092 0.073-0.24 0.051-0.151 0.102-0.301 0.153-0.452 0.061-0.153 0.091-0.242 0.09-0.268z" fill="#0063db" data-fill-palette-color="primary"></path><path d="M214.353 36.464v0c-0.732-0.528-1.29-1.123-1.675-1.783-0.375-0.662-0.593-1.354-0.654-2.076-0.057-0.728 0.031-1.465 0.265-2.21 0.243-0.746 0.612-1.463 1.107-2.149v0c0.504-0.698 1.069-1.276 1.697-1.736 0.629-0.45 1.299-0.758 2.01-0.924 0.711-0.165 1.437-0.172 2.179-0.018 0.738 0.159 1.476 0.504 2.213 1.036v0c0.749 0.541 1.321 1.14 1.715 1.799 0.398 0.653 0.631 1.343 0.698 2.069 0.067 0.727-0.016 1.462-0.249 2.207-0.237 0.751-0.614 1.483-1.13 2.198v0c-0.508 0.703-1.084 1.279-1.729 1.727-0.639 0.452-1.318 0.753-2.036 0.905-0.716 0.161-1.449 0.158-2.198-0.009-0.749-0.167-1.487-0.512-2.213-1.036zM215.302 35.257v0c0.509 0.367 1.01 0.564 1.505 0.591 0.484 0.028 0.955-0.063 1.41-0.274 0.462-0.206 0.888-0.489 1.279-0.851 0.395-0.367 0.748-0.765 1.058-1.193v0c0.31-0.429 0.583-0.892 0.821-1.391 0.232-0.502 0.382-1.011 0.45-1.527 0.068-0.516 0.011-1.009-0.171-1.48-0.184-0.48-0.533-0.906-1.048-1.278v0c-0.503-0.363-1-0.561-1.489-0.593-0.494-0.026-0.969 0.066-1.426 0.276-0.46 0.216-0.888 0.507-1.283 0.874-0.397 0.357-0.748 0.747-1.053 1.17v0c-0.305 0.423-0.573 0.891-0.804 1.403-0.232 0.502-0.382 1.011-0.45 1.528-0.064 0.51-0.007 1.004 0.171 1.48 0.172 0.472 0.516 0.894 1.03 1.265z" fill="#0063db" data-fill-palette-color="primary"></path><path d="M228.299 31.993l2.001 1.746-1.155 8.384c-0.021 0.206-0.05 0.411-0.086 0.613-0.036 0.212-0.071 0.42-0.108 0.622v0c0.124-0.163 0.245-0.329 0.364-0.497 0.118-0.178 0.244-0.344 0.378-0.498v0l4.535-5.195 1.347 1.175-7.818 8.957-1.315-1.147 1.335-9.604c0.041-0.208 0.076-0.42 0.106-0.637 0.03-0.217 0.061-0.424 0.093-0.621v0c-0.095 0.141-0.195 0.288-0.3 0.44-0.105 0.152-0.217 0.297-0.338 0.435v0l-5.279 6.049-1.347-1.176 7.116-8.152z" fill="#0063db" data-fill-palette-color="primary"></path><path d="M241.192 45.478l0.573-0.835 2.489 2.798c0.52 0.585 0.914 1.192 1.182 1.822 0.268 0.63 0.338 1.261 0.211 1.893-0.117 0.632-0.51 1.246-1.179 1.842v0c-0.611 0.544-1.245 0.839-1.903 0.885-0.657 0.046-1.296-0.093-1.916-0.42-0.616-0.321-1.167-0.755-1.654-1.303v0l-0.879-0.988-3.549 3.156-1.469-1.652zM243.123 48.574l-0.913-1.028-2.917 2.594 0.907 1.019c0.398 0.448 0.843 0.666 1.332 0.655 0.485-0.007 0.941-0.2 1.368-0.579v0c0.443-0.394 0.695-0.821 0.757-1.282 0.052-0.461-0.126-0.921-0.534-1.379z" fill="#0063db" data-fill-palette-color="primary"></path><path d="M242.367 64.29v0c-0.536-0.726-0.887-1.462-1.052-2.209-0.155-0.744-0.152-1.47 0.01-2.176 0.168-0.711 0.476-1.386 0.925-2.024 0.459-0.637 1.029-1.207 1.71-1.71v0c0.692-0.511 1.407-0.89 2.145-1.136 0.737-0.237 1.469-0.326 2.196-0.267 0.727 0.059 1.421 0.274 2.081 0.646 0.654 0.376 1.252 0.93 1.792 1.661v0c0.549 0.743 0.91 1.488 1.086 2.236 0.181 0.743 0.192 1.471 0.034 2.184-0.158 0.712-0.461 1.388-0.91 2.026-0.455 0.643-1.037 1.226-1.746 1.749v0c-0.698 0.515-1.422 0.888-2.173 1.118-0.746 0.236-1.485 0.316-2.215 0.241-0.732-0.065-1.429-0.291-2.091-0.678-0.663-0.387-1.26-0.941-1.792-1.661zM243.638 63.43v0c0.373 0.505 0.79 0.845 1.254 1.02 0.453 0.174 0.928 0.231 1.426 0.17 0.503-0.055 0.995-0.196 1.478-0.421 0.488-0.229 0.945-0.501 1.371-0.814v0c0.425-0.314 0.827-0.672 1.205-1.074 0.374-0.408 0.672-0.847 0.895-1.318 0.222-0.471 0.318-0.958 0.288-1.462-0.029-0.514-0.231-1.026-0.608-1.536v0c-0.369-0.499-0.781-0.839-1.239-1.019-0.463-0.176-0.943-0.233-1.441-0.171-0.504 0.065-1 0.212-1.489 0.441-0.487 0.219-0.94 0.484-1.36 0.794v0c-0.42 0.31-0.817 0.674-1.193 1.091-0.374 0.408-0.672 0.847-0.894 1.318-0.216 0.467-0.313 0.954-0.288 1.461 0.02 0.502 0.219 1.009 0.595 1.52z" fill="#0063db" data-fill-palette-color="primary"></path><path d="M256.295 64.97l0.714-0.719 2.103 3.463c0.373 0.615 0.633 1.233 0.779 1.853 0.142 0.615 0.11 1.2-0.098 1.755-0.214 0.559-0.67 1.05-1.369 1.475v0c-0.386 0.234-0.822 0.359-1.308 0.373-0.476 0.017-0.94-0.06-1.391-0.232-0.451-0.172-0.837-0.42-1.157-0.745v0l-2.915 6.002-1.306-2.152 2.8-5.537-0.461-0.759-4.502 2.734-1.148-1.89zM257.628 68.368l-0.719-1.185-2.876 1.746 0.539 0.886c0.216 0.356 0.455 0.648 0.717 0.876 0.26 0.238 0.551 0.371 0.873 0.398 0.326 0.033 0.681-0.067 1.067-0.301v0c0.301-0.183 0.509-0.412 0.622-0.687 0.111-0.265 0.145-0.55 0.101-0.854-0.044-0.303-0.152-0.597-0.324-0.879z" fill="#0063db" data-fill-palette-color="primary"></path><path d="M253.256 81.425l9.118-4.611-1.48-2.926 1.425-0.721 4.02 7.948-1.426 0.721-1.499-2.964-9.118 4.611z" fill="#0063db" data-fill-palette-color="primary"></path><path d="M268.255 85.676l0.678 1.631-9.309 8.391-0.917-2.208 2.69-2.377-1.347-3.243-3.591 0.209-0.718-1.729zM262.649 90.02l3.261-2.683-4.198 0.427z" fill="#0063db" data-fill-palette-color="primary"></path><path d="M270.54 94.129l0.867-0.51 0.771 2.33-9.7 3.211 1.455 4.398-1.516 0.502-2.16-6.527z" fill="#0063db" data-fill-palette-color="primary"></path><path d="M17.853 174.565l0.874-0.512 1.061 3.591c0.222 0.751 0.319 1.468 0.293 2.152-0.026 0.684-0.231 1.285-0.614 1.803-0.375 0.523-0.992 0.911-1.852 1.164v0c-0.785 0.232-1.484 0.229-2.098-0.009-0.614-0.238-1.133-0.636-1.555-1.195-0.42-0.552-0.734-1.18-0.942-1.884v0l-0.374-1.268-4.555 1.345-0.626-2.12zM18.283 178.188l-0.39-1.319-3.743 1.105 0.386 1.309c0.17 0.575 0.479 0.962 0.928 1.16 0.442 0.201 0.936 0.22 1.484 0.058v0c0.568-0.168 0.978-0.447 1.23-0.838 0.244-0.395 0.278-0.887 0.105-1.475z" fill="#0063db" data-fill-palette-color="primary"></path><path d="M22.555 185.728l0.634 1.648-9.53 8.14-0.858-2.232 2.752-2.304-1.26-3.278-3.594 0.112-0.672-1.747zM16.835 189.921l3.331-2.595-4.208 0.314z" fill="#0063db" data-fill-palette-color="primary"></path><path d="M24.479 193.153l0.781-0.646 1.757 3.65c0.312 0.648 0.511 1.288 0.596 1.92 0.082 0.626-0.007 1.205-0.267 1.737-0.267 0.535-0.768 0.98-1.505 1.335v0c-0.407 0.196-0.853 0.277-1.338 0.245-0.476-0.029-0.93-0.151-1.362-0.365-0.432-0.215-0.792-0.499-1.08-0.854v0l-3.482 5.692-1.092-2.269 3.324-5.239-0.386-0.801-4.746 2.285-0.959-1.992zM25.477 196.664l-0.601-1.249-3.031 1.459 0.45 0.934c0.18 0.375 0.39 0.689 0.629 0.942 0.236 0.262 0.513 0.422 0.83 0.481 0.321 0.065 0.684-0.001 1.091-0.197v0c0.318-0.153 0.546-0.361 0.686-0.624 0.136-0.253 0.197-0.533 0.183-0.839-0.014-0.306-0.093-0.609-0.237-0.907z" fill="#0063db" data-fill-palette-color="primary"></path><path d="M29.796 201.705v0l1.185 2.149-10.346 5.706-1.073-1.945 9.485-5.231c0.012-0.007 0.073-0.065 0.182-0.173 0.119-0.106 0.238-0.212 0.356-0.318 0.128-0.103 0.198-0.166 0.211-0.188z" fill="#0063db" data-fill-palette-color="primary"></path><path d="M31.573 206.721l0.703-0.726 1.323 2.067-4.446 2.845 6.572 0.479 1.112 1.737-6.418-0.452-3.352 7.105-1.391-2.174 3.013-6.399-5.043 3.227-1.197-1.871z" fill="#0063db" data-fill-palette-color="primary"></path><path d="M40.088 217.111v0c0.365 0.484 0.654 1.008 0.867 1.572 0.208 0.558 0.329 1.116 0.361 1.675v0l-1.775-0.053c0.025-0.389-0.03-0.79-0.164-1.202-0.133-0.412-0.313-0.767-0.537-1.065v0c-0.255-0.338-0.573-0.579-0.956-0.723-0.378-0.139-0.753-0.068-1.125 0.211v0c-0.248 0.187-0.415 0.41-0.502 0.67-0.087 0.26-0.119 0.545-0.097 0.855 0.026 0.316 0.07 0.649 0.131 1v0c0.083 0.414 0.169 0.84 0.258 1.275 0.084 0.44 0.123 0.878 0.117 1.316-0.012 0.441-0.112 0.87-0.302 1.287-0.188 0.407-0.516 0.786-0.983 1.138v0c-0.625 0.471-1.274 0.717-1.947 0.738-0.673 0.021-1.31-0.134-1.914-0.466-0.597-0.336-1.117-0.797-1.557-1.382v0c-0.395-0.524-0.733-1.09-1.015-1.699-0.272-0.607-0.448-1.239-0.527-1.894v0l1.895-0.474c-0.051 0.506-0.013 1.025 0.113 1.557 0.117 0.53 0.33 1.001 0.64 1.412v0c0.208 0.276 0.457 0.495 0.746 0.656 0.28 0.16 0.58 0.243 0.902 0.248 0.317-0.001 0.625-0.113 0.923-0.338v0c0.31-0.233 0.502-0.511 0.578-0.833 0.071-0.327 0.079-0.686 0.024-1.077-0.046-0.389-0.117-0.799-0.212-1.231v0c-0.083-0.379-0.155-0.762-0.216-1.148-0.056-0.391-0.07-0.773-0.043-1.146 0.032-0.368 0.138-0.731 0.319-1.089 0.185-0.352 0.478-0.678 0.878-0.979v0c0.625-0.471 1.252-0.7 1.88-0.687 0.633 0.009 1.227 0.188 1.782 0.538 0.561 0.346 1.047 0.792 1.458 1.338z" fill="#0063db" data-fill-palette-color="primary"></path><path d="M39.205 234.73l3.956-3.494-3.284-3.719-3.956 3.494-1.478-1.672 8.119-7.171c0.011-0.009 0.06-0.076 0.147-0.2 0.093-0.129 0.186-0.258 0.279-0.388 0.098-0.134 0.153-0.21 0.164-0.229v0l1.625 1.839-3.703 3.27 3.284 3.718 3.703-3.27 1.47 1.665-8.856 7.822z" fill="#0063db" data-fill-palette-color="primary"></path><path d="M53.625 232.426l1.293 1.204-4.994 11.494-1.75-1.629 1.462-3.278-2.57-2.393-3.181 1.678-1.37-1.276zM50.323 238.703l1.856-3.793-3.644 2.128z" fill="#0063db" data-fill-palette-color="primary"></path><path d="M57.653 244.145v0c-0.216 0.26-0.498 0.412-0.844 0.454-0.348 0.032-0.654-0.062-0.92-0.283v0c-0.26-0.216-0.409-0.5-0.447-0.852-0.028-0.353 0.067-0.66 0.282-0.92v0c0.221-0.266 0.505-0.415 0.853-0.447 0.348-0.022 0.65 0.072 0.905 0.284v0c0.266 0.221 0.417 0.502 0.454 0.844 0.032 0.348-0.062 0.654-0.283 0.92zM54.673 247.734v0c-0.212 0.255-0.489 0.401-0.83 0.438-0.348 0.032-0.654-0.062-0.921-0.283v0c-0.26-0.216-0.409-0.5-0.447-0.852-0.032-0.348 0.058-0.649 0.269-0.904v0c0.221-0.266 0.505-0.415 0.853-0.447 0.353-0.028 0.657 0.064 0.912 0.276v0c0.266 0.221 0.415 0.505 0.447 0.852 0.032 0.348-0.062 0.654-0.283 0.92z" fill="#0063db" data-fill-palette-color="primary"></path><path d="M65.172 256.609v0c-0.758-0.49-1.346-1.055-1.763-1.695-0.408-0.642-0.661-1.322-0.759-2.04-0.094-0.724-0.044-1.464 0.151-2.22 0.205-0.758 0.537-1.492 0.997-2.203v0c0.467-0.722 1.003-1.329 1.606-1.821 0.606-0.482 1.259-0.823 1.96-1.024 0.701-0.201 1.426-0.245 2.175-0.13 0.745 0.121 1.499 0.428 2.264 0.922v0c0.776 0.502 1.377 1.071 1.804 1.709 0.431 0.632 0.699 1.309 0.803 2.031 0.104 0.722 0.058 1.461-0.137 2.217-0.199 0.762-0.537 1.513-1.016 2.253v0c-0.471 0.728-1.017 1.332-1.638 1.812-0.615 0.484-1.278 0.82-1.988 1.008-0.707 0.198-1.439 0.232-2.196 0.103-0.757-0.128-1.511-0.436-2.263-0.922zM66.059 255.356v0c0.527 0.341 1.038 0.512 1.532 0.512 0.485 0.003 0.95-0.112 1.395-0.344 0.451-0.229 0.862-0.534 1.234-0.915 0.376-0.387 0.708-0.802 0.995-1.246v0c0.287-0.444 0.537-0.921 0.749-1.431 0.206-0.513 0.33-1.03 0.372-1.548 0.042-0.519-0.04-1.009-0.246-1.47-0.208-0.47-0.578-0.878-1.112-1.222v0c-0.521-0.337-1.027-0.509-1.518-0.516-0.495-0.001-0.965 0.115-1.409 0.348-0.449 0.239-0.861 0.552-1.237 0.938-0.378 0.377-0.709 0.784-0.992 1.223v0c-0.283 0.438-0.527 0.919-0.732 1.442-0.206 0.513-0.33 1.03-0.371 1.548-0.038 0.513 0.044 1.003 0.246 1.469 0.196 0.463 0.561 0.867 1.094 1.212z" fill="#0063db" data-fill-palette-color="primary"></path><path d="M77.845 250.379l2.352 1.231 0.833 8.423c0.028 0.206 0.048 0.411 0.06 0.616 0.015 0.215 0.028 0.425 0.04 0.63v0c0.082-0.188 0.162-0.377 0.238-0.568 0.073-0.201 0.157-0.391 0.252-0.572v0l3.198-6.111 1.584 0.829-5.514 10.534-1.546-0.809-0.942-9.651c-0.009-0.211-0.024-0.426-0.045-0.644-0.021-0.218-0.039-0.427-0.055-0.625v0c-0.06 0.16-0.123 0.326-0.189 0.498-0.066 0.172-0.142 0.34-0.227 0.502v0l-3.723 7.113-1.584-0.829 5.018-9.587z" fill="#0063db" data-fill-palette-color="primary"></path><path d="M88.393 256.761l0.185-0.99 2.264 0.948-3.944 9.426 4.274 1.788-0.616 1.473-6.343-2.653z" fill="#0063db" data-fill-palette-color="primary"></path><path d="M96.919 259.134v0l2.312 0.824-3.967 11.129-2.093-0.746 3.637-10.202c0.005-0.013 0.012-0.097 0.022-0.251 0.019-0.158 0.038-0.316 0.056-0.474 0.028-0.162 0.039-0.256 0.033-0.28z" fill="#0063db" data-fill-palette-color="primary"></path><path d="M101.592 260.703l2.556 0.718 2.557 8.069c0.07 0.195 0.132 0.392 0.185 0.59 0.059 0.207 0.116 0.41 0.17 0.608v0c0.042-0.201 0.08-0.402 0.115-0.605 0.03-0.211 0.073-0.415 0.128-0.612v0l1.865-6.639 1.721 0.483-3.215 11.446-1.68-0.472-2.918-9.247c-0.052-0.205-0.111-0.412-0.177-0.621-0.066-0.209-0.127-0.409-0.183-0.6v0c-0.025 0.169-0.053 0.344-0.082 0.526-0.029 0.182-0.069 0.362-0.118 0.538v0l-2.172 7.729-1.721-0.483 2.927-10.418z" fill="#0063db" data-fill-palette-color="primary"></path><path d="M113.233 264.764l-0.057-1.012 7.308 1.379-0.297 1.57-4.895-0.924-0.62 3.284 3.752 0.708-0.296 1.57-3.752-0.708-0.683 3.617 4.896 0.924-0.297 1.569-7.068-1.333z" fill="#0063db" data-fill-palette-color="primary"></path><path d="M127.151 266.888l-0.169-0.999 7.415 0.553-0.118 1.593-4.969-0.37-0.248 3.333 3.808 0.284-0.119 1.593-3.808-0.284-0.274 3.671 4.969 0.37-0.119 1.593-7.173-0.535z" fill="#0063db" data-fill-palette-color="primary"></path><path d="M135.501 266.453l2.57-0.026 7.152 11.744-2.58 0.026zM135.397 278.27l7.011-11.886 2.253-0.023-7.021 11.886z" fill="#0063db" data-fill-palette-color="primary"></path><path d="M149.611 265.966l1.759-0.16 5.234 11.387-2.38 0.217-1.467-3.276-3.498 0.319-0.871 3.489-1.864 0.17zM152.087 272.613l-1.589-3.913-0.844 4.135z" fill="#0063db" data-fill-palette-color="primary"></path><path d="M156.822 265.211l3.048-0.564 3.708 6.21c0.177 0.297 0.325 0.596 0.446 0.896 0.121 0.307 0.243 0.618 0.366 0.933v0c0.029-0.35 0.036-0.677 0.023-0.983-0.007-0.307 0.017-0.624 0.072-0.949v0l1.178-7.178 2.798-0.518 2.145 11.598-2.142 0.396-1.457-7.874c-0.035-0.187-0.059-0.38-0.074-0.578-0.016-0.205-0.038-0.398-0.065-0.579v0c-0.026 0.206-0.05 0.407-0.071 0.604-0.026 0.206-0.057 0.409-0.091 0.609v0l-1.38 8.42-1.175 0.217-4.383-7.354c-0.111-0.173-0.212-0.352-0.303-0.535-0.097-0.176-0.195-0.355-0.293-0.538v0c0.047 0.178 0.1 0.365 0.157 0.563 0.057 0.19 0.102 0.379 0.137 0.566v0l1.457 7.874-1.737 0.321-1.966-10.63z" fill="#0063db" data-fill-palette-color="primary"></path><path d="M170.601 262.461v0l2.373-0.626 3.018 11.423-2.148 0.567-2.766-10.472c-0.004-0.014-0.045-0.087-0.124-0.219-0.074-0.141-0.147-0.282-0.221-0.423-0.069-0.15-0.113-0.233-0.132-0.25z" fill="#0063db" data-fill-palette-color="primary"></path><path d="M175.343 261.115l2.515-0.852 6.669 5.211c0.168 0.122 0.33 0.249 0.487 0.382 0.166 0.137 0.327 0.273 0.484 0.405v0c-0.079-0.189-0.161-0.377-0.247-0.564-0.095-0.191-0.175-0.384-0.24-0.577v0l-2.214-6.532 1.693-0.574 3.817 11.26-1.653 0.561-7.634-5.979c-0.159-0.14-0.325-0.277-0.497-0.412-0.172-0.135-0.336-0.266-0.49-0.393v0c0.074 0.153 0.151 0.314 0.229 0.481 0.079 0.167 0.148 0.337 0.207 0.511v0l2.578 7.603-1.693 0.574-3.474-10.248z" fill="#0063db" data-fill-palette-color="primary"></path><path d="M189.622 255.718l1.61-0.728 8.672 9.047-2.178 0.985-2.459-2.616-3.2 1.446 0.318 3.582-1.706 0.771zM194.136 261.188l-2.781-3.177 0.555 4.183z" fill="#0063db" data-fill-palette-color="primary"></path><path d="M203.209 262.258l-4.865-8.986-2.883 1.561-0.761-1.405 7.832-4.24 0.761 1.405-2.921 1.581 4.865 8.986z" fill="#0063db" data-fill-palette-color="primary"></path><path d="M204.034 248.267v0l2.091-1.284 6.183 10.068-1.893 1.163-5.668-9.231c-0.007-0.012-0.068-0.07-0.181-0.174-0.111-0.114-0.222-0.228-0.334-0.341-0.109-0.123-0.175-0.191-0.198-0.201z" fill="#0063db" data-fill-palette-color="primary"></path><path d="M219.26 252.392v0c-0.732 0.528-1.472 0.871-2.219 1.028-0.746 0.147-1.472 0.136-2.177-0.033-0.709-0.175-1.38-0.491-2.014-0.947-0.632-0.466-1.195-1.042-1.691-1.728v0c-0.504-0.698-0.875-1.417-1.113-2.157-0.229-0.739-0.31-1.472-0.244-2.199 0.067-0.727 0.29-1.418 0.669-2.074 0.383-0.65 0.943-1.242 1.681-1.774v0c0.749-0.541 1.498-0.894 2.247-1.061 0.745-0.173 1.473-0.176 2.184-0.011 0.711 0.165 1.383 0.476 2.016 0.932 0.638 0.462 1.214 1.05 1.73 1.764v0c0.508 0.703 0.872 1.431 1.095 2.185 0.228 0.749 0.3 1.488 0.217 2.217-0.073 0.731-0.306 1.425-0.7 2.084-0.394 0.659-0.955 1.25-1.681 1.774zM218.414 251.112v0c0.509-0.367 0.854-0.781 1.034-1.243 0.179-0.451 0.241-0.926 0.185-1.424-0.05-0.503-0.185-0.997-0.405-1.483-0.224-0.491-0.49-0.951-0.8-1.379v0c-0.31-0.429-0.663-0.835-1.061-1.217-0.404-0.378-0.84-0.681-1.308-0.908-0.468-0.227-0.955-0.329-1.458-0.304-0.514 0.023-1.028 0.22-1.543 0.591v0c-0.503 0.363-0.847 0.772-1.032 1.228-0.181 0.461-0.243 0.941-0.187 1.439 0.06 0.505 0.202 1.002 0.425 1.494 0.214 0.489 0.474 0.945 0.779 1.368v0c0.305 0.423 0.665 0.825 1.079 1.205 0.404 0.378 0.84 0.681 1.308 0.908 0.464 0.222 0.95 0.323 1.458 0.304 0.502-0.015 1.011-0.208 1.526-0.579z" fill="#0063db" data-fill-palette-color="primary"></path><path d="M218.051 238.324l2.001-1.746 8.151 2.278c0.202 0.049 0.4 0.105 0.596 0.168 0.206 0.064 0.406 0.128 0.602 0.19v0c-0.145-0.145-0.293-0.287-0.443-0.427-0.16-0.141-0.308-0.288-0.442-0.442v0l-4.536-5.196 1.347-1.176 7.818 8.957-1.314 1.148-9.336-2.62c-0.2-0.069-0.406-0.133-0.617-0.192-0.211-0.059-0.412-0.118-0.602-0.176v0c0.127 0.114 0.259 0.233 0.395 0.357 0.137 0.124 0.265 0.255 0.386 0.393v0l5.279 6.049-1.347 1.175-7.115-8.152z" fill="#0063db" data-fill-palette-color="primary"></path><path d="M231.001 227.516l-0.897-0.472 2.489-2.798c0.52-0.585 1.077-1.047 1.671-1.387 0.594-0.34 1.213-0.483 1.856-0.431 0.642 0.042 1.297 0.361 1.966 0.957v0c0.611 0.544 0.978 1.139 1.102 1.786 0.123 0.647 0.059 1.298-0.193 1.952-0.247 0.649-0.614 1.247-1.101 1.795v0l-0.879 0.988 3.549 3.156-1.469 1.652zM233.849 225.236l-0.914 1.028 2.917 2.594 0.907-1.02c0.398-0.448 0.563-0.915 0.495-1.4-0.063-0.481-0.308-0.911-0.735-1.291v0c-0.443-0.394-0.896-0.594-1.362-0.602-0.464 0.002-0.9 0.233-1.308 0.691z" fill="#0063db" data-fill-palette-color="primary"></path><path d="M249.112 222.748v0c-0.536 0.726-1.136 1.278-1.8 1.655-0.666 0.367-1.36 0.578-2.083 0.631-0.729 0.049-1.464-0.047-2.207-0.287-0.744-0.251-1.456-0.628-2.137-1.131v0c-0.692-0.511-1.265-1.083-1.718-1.715-0.443-0.634-0.744-1.307-0.902-2.02-0.158-0.712-0.156-1.439 0.005-2.179 0.167-0.736 0.52-1.47 1.06-2.202v0c0.549-0.743 1.154-1.308 1.817-1.696 0.657-0.391 1.349-0.617 2.077-0.676 0.727-0.059 1.462 0.032 2.204 0.273 0.748 0.245 1.477 0.63 2.186 1.154v0c0.698 0.515 1.267 1.098 1.708 1.747 0.445 0.644 0.739 1.326 0.883 2.046 0.154 0.718 0.143 1.451-0.032 2.198-0.175 0.747-0.528 1.481-1.061 2.202zM247.916 221.786v0c0.373-0.505 0.575-1.004 0.607-1.498 0.033-0.484-0.053-0.955-0.259-1.414-0.201-0.464-0.48-0.893-0.837-1.288-0.363-0.399-0.757-0.756-1.182-1.07v0c-0.425-0.314-0.886-0.593-1.381-0.836-0.5-0.237-1.007-0.393-1.523-0.467-0.515-0.074-1.009-0.022-1.482 0.155-0.482 0.179-0.912 0.523-1.289 1.034v0c-0.369 0.499-0.571 0.994-0.608 1.484-0.032 0.494 0.055 0.97 0.26 1.428 0.211 0.462 0.498 0.893 0.86 1.292 0.353 0.401 0.739 0.756 1.159 1.066v0c0.42 0.31 0.884 0.583 1.394 0.819 0.5 0.237 1.007 0.393 1.523 0.467 0.51 0.069 1.004 0.018 1.482-0.156 0.474-0.167 0.9-0.506 1.276-1.016z" fill="#0063db" data-fill-palette-color="primary"></path><path d="M244.637 210.009l-0.967-0.302 2.103-3.463c0.373-0.615 0.802-1.13 1.285-1.546 0.48-0.41 1.014-0.651 1.602-0.723 0.594-0.068 1.241 0.11 1.94 0.535v0c0.386 0.234 0.697 0.564 0.935 0.988 0.235 0.415 0.38 0.862 0.435 1.341 0.056 0.479 0.013 0.936-0.127 1.371v0l6.67-0.183-1.307 2.152-6.204 0.069-0.461 0.76 4.502 2.734-1.147 1.889zM247.037 207.259l-0.719 1.185 2.875 1.746 0.538-0.887c0.216-0.356 0.365-0.703 0.447-1.04 0.091-0.341 0.075-0.66-0.05-0.958-0.121-0.304-0.374-0.573-0.759-0.808v0c-0.301-0.183-0.6-0.261-0.897-0.235-0.287 0.024-0.555 0.125-0.803 0.304-0.249 0.179-0.459 0.41-0.632 0.693z" fill="#0063db" data-fill-palette-color="primary"></path><path d="M260.417 204.254l-9.118-4.612-1.48 2.926-1.426-0.72 4.02-7.948 1.425 0.721-1.499 2.964 9.119 4.611z" fill="#0063db" data-fill-palette-color="primary"></path><path d="M253.844 190.395l0.677-1.631 12.514 0.674-0.917 2.207-3.582-0.228-1.347 3.244 2.682 2.396-0.719 1.729zM260.878 191.301l-4.202-0.417 3.265 2.674z" fill="#0063db" data-fill-palette-color="primary"></path><path d="M257.592 183.643l-1-0.108 0.771-2.33 9.701 3.21 1.455-4.398 1.517 0.502-2.161 6.527z" fill="#0063db" data-fill-palette-color="primary"></path><path d="M2.089 141.029c0-2.534 2.054-4.589 4.588-4.589 2.534 0 4.589 2.054 4.589 4.589 0 2.534-2.054 4.589-4.589 4.588-2.534 0-4.589-2.054-4.588-4.588z" fill="#0063db" data-fill-palette-color="primary"></path><path d="M267.004 141.029c0-2.534 2.054-4.589 4.588-4.589 2.534 0 4.589 2.054 4.589 4.589 0 2.534-2.054 4.589-4.589 4.588-2.534 0-4.589-2.054-4.588-4.588z" fill="#0063db" data-fill-palette-color="primary"></path></g></svg></g><g transform="matrix(1,0,0,1,53.1494936,285.28763922253614)"><svg viewBox="0 0 171.97061280000003 9.805708070742085" height="9.805708070742085" width="171.97061280000003"><g transform="matrix(1,0,0,1,0,0)"><svg width="171.97061280000003" viewBox="1.2200000286102295 -38.09000015258789 854.9800415039062 48.76000213623047" height="9.805708070742085" data-palette-color="#0063db"><path d="M18.43 0L12.87 0 4.59-31.4 1.22-31.76 1.22-35.55 14.36-35.55 14.36-31.76 10.57-31.2 14.94-12.94 15.84-9.2 15.99-9.18 17.11-12.94 24.19-35.55 29-35.55 36.28-12.57 37.35-8.94 37.5-8.94 38.45-12.57 42.9-31.2 38.89-31.76 38.89-35.55 51.78-35.55 51.78-31.76 48.63-31.4 40.45 0 34.79 0 27.64-22.39 26.73-25.61 26.59-25.61 25.63-22.34 18.43 0ZM67.43 0L54.17 0 54.17-3.76 57.83-4.49 57.83-33.57 53.95-34.3 53.95-38.09 63.96-38.09 63.96-23Q65.26-24.85 67.16-25.88 69.06-26.9 71.46-26.9L71.46-26.9Q75.53-26.9 77.87-24.3 80.2-21.7 80.2-16.28L80.2-16.28 80.2-4.49 83.86-3.76 83.86 0 70.6 0 70.6-3.76 74.07-4.49 74.07-16.33Q74.07-19.36 72.85-20.7 71.63-22.05 69.26-22.05L69.26-22.05Q67.58-22.05 66.22-21.3 64.87-20.56 63.96-19.21L63.96-19.21 63.96-4.49 67.43-3.76 67.43 0ZM98.68 0.51L98.68 0.51Q94.94 0.51 92.17-1.16 89.4-2.83 87.87-5.79 86.35-8.74 86.35-12.55L86.35-12.55 86.35-13.57Q86.35-17.43 87.85-20.45 89.35-23.46 91.99-25.18 94.62-26.9 97.99-26.9L97.99-26.9Q101.58-26.9 104.01-25.46 106.44-24.02 107.69-21.37 108.93-18.73 108.93-15.01L108.93-15.01 108.93-11.5 92.72-11.5 92.67-11.38Q92.77-9.3 93.54-7.69 94.31-6.08 95.73-5.15 97.16-4.22 99.21-4.22L99.21-4.22Q101.36-4.22 103.12-4.81 104.88-5.4 106.37-6.47L106.37-6.47 108.3-2.61Q106.73-1.29 104.32-0.39 101.9 0.51 98.68 0.51ZM92.74-15.94L92.82-15.82 103.05-15.82 103.05-16.46Q103.05-18.19 102.52-19.49 102-20.8 100.89-21.53 99.78-22.27 98.07-22.27L98.07-22.27Q96.58-22.27 95.45-21.44 94.33-20.61 93.66-19.18 92.99-17.75 92.74-15.94L92.74-15.94ZM126.16 0L112.69 0 112.69-3.76 116.35-4.49 116.35-21.9 112.49-22.63 112.49-26.42 122.01-26.42 122.33-23.1 122.38-22.56Q123.43-24.66 124.96-25.78 126.48-26.9 128.53-26.9L128.53-26.9Q129.22-26.9 129.99-26.78 130.75-26.66 131.24-26.51L131.24-26.51 130.53-20.83 127.09-21.02Q125.41-21.12 124.32-20.36 123.23-19.6 122.5-18.26L122.5-18.26 122.5-4.49 126.16-3.76 126.16 0ZM145.62 0.51L145.62 0.51Q141.88 0.51 139.11-1.16 136.34-2.83 134.82-5.79 133.29-8.74 133.29-12.55L133.29-12.55 133.29-13.57Q133.29-17.43 134.79-20.45 136.29-23.46 138.93-25.18 141.57-26.9 144.94-26.9L144.94-26.9Q148.53-26.9 150.95-25.46 153.38-24.02 154.63-21.37 155.87-18.73 155.87-15.01L155.87-15.01 155.87-11.5 139.66-11.5 139.61-11.38Q139.71-9.3 140.48-7.69 141.25-6.08 142.68-5.15 144.11-4.22 146.16-4.22L146.16-4.22Q148.31-4.22 150.06-4.81 151.82-5.4 153.31-6.47L153.31-6.47 155.24-2.61Q153.68-1.29 151.26-0.39 148.84 0.51 145.62 0.51ZM139.69-15.94L139.76-15.82 149.99-15.82 149.99-16.46Q149.99-18.19 149.47-19.49 148.94-20.8 147.83-21.53 146.72-22.27 145.01-22.27L145.01-22.27Q143.52-22.27 142.4-21.44 141.27-20.61 140.6-19.18 139.93-17.75 139.69-15.94L139.69-15.94ZM199.33 0L171.64 0 171.64-3.76 175.52-4.49 175.52-31.03 171.64-31.76 171.64-35.55 198.72-35.55 198.72-26.39 193.93-26.39 193.52-30.81 181.67-30.81 181.67-20.75 194.15-20.75 194.15-15.99 181.67-15.99 181.67-4.69 194.17-4.69 194.59-9.2 199.33-9.2 199.33 0ZM213.39 0.51L213.39 0.51Q210.19 0.51 207.92-1.1 205.65-2.71 204.44-5.6 203.23-8.5 203.23-12.35L203.23-12.35 203.23-12.87Q203.23-17.09 204.44-20.24 205.65-23.39 207.93-25.15 210.21-26.9 213.36-26.9L213.36-26.9Q215.63-26.9 217.33-26.04 219.03-25.17 220.25-23.56L220.25-23.56 220.25-33.57 216.36-34.3 216.36-38.09 220.25-38.09 226.4-38.09 226.4-4.49 230.06-3.76 230.06 0 221.08 0 220.59-3.2Q219.34-1.37 217.55-0.43 215.75 0.51 213.39 0.51ZM215.12-4.35L215.12-4.35Q216.88-4.35 218.15-5.11 219.42-5.88 220.25-7.35L220.25-7.35 220.25-18.99Q219.44-20.41 218.16-21.23 216.88-22.05 215.17-22.05L215.17-22.05Q213.17-22.05 211.88-20.89 210.6-19.73 209.99-17.66 209.38-15.6 209.38-12.87L209.38-12.87 209.38-12.35Q209.38-8.69 210.74-6.52 212.09-4.35 215.12-4.35ZM244.15 0.51L244.15 0.51Q239.9 0.51 237.52-2.19 235.14-4.88 235.14-10.57L235.14-10.57 235.14-21.9 232.16-22.63 232.16-26.42 235.14-26.42 241.29-26.42 241.29-10.52Q241.29-7.1 242.38-5.73 243.46-4.35 245.73-4.35L245.73-4.35Q247.73-4.35 249.14-5.14 250.54-5.93 251.37-7.4L251.37-7.4 251.37-21.9 248.05-22.63 248.05-26.42 251.37-26.42 257.52-26.42 257.52-4.49 260.65-3.76 260.65 0 252.08 0 251.66-3.59Q250.42-1.61 248.5-0.55 246.59 0.51 244.15 0.51ZM275.78 0.51L275.78 0.51Q272.07 0.51 269.35-1.18 266.63-2.88 265.15-5.87 263.67-8.86 263.67-12.77L263.67-12.77 263.67-13.62Q263.67-17.46 265.14-20.46 266.6-23.46 269.33-25.18 272.05-26.9 275.76-26.9L275.76-26.9Q279.15-26.9 281.67-25.82 284.18-24.73 285.79-23.12L285.79-23.12 285.82-16.06 281.13-16.06 280.23-20.73Q279.54-21.44 278.49-21.86 277.44-22.29 276.2-22.29L276.2-22.29Q274.17-22.29 272.74-21.19 271.32-20.09 270.57-18.15 269.83-16.21 269.83-13.62L269.83-13.62 269.83-12.77Q269.83-9.99 270.58-8.08 271.34-6.18 272.69-5.2 274.05-4.22 275.81-4.22L275.81-4.22Q277.93-4.22 279.26-5.37 280.59-6.52 281.01-8.54L281.01-8.54 286.33-8.54 286.4-8.4Q286.11-5.81 284.88-3.8 283.64-1.78 281.41-0.63 279.18 0.51 275.78 0.51ZM298.78 0.51L298.78 0.51Q294.75 0.51 292.5-1.56 290.26-3.64 290.26-7.28L290.26-7.28Q290.26-9.77 291.63-11.65 292.99-13.53 295.63-14.59 298.27-15.65 302.03-15.65L302.03-15.65 306.05-15.65 306.05-17.87Q306.05-19.97 304.8-21.22 303.54-22.46 301.15-22.46L301.15-22.46Q299.78-22.46 298.73-22.13 297.68-21.8 296.85-21.19L296.85-21.19 296.29-17.63 291.77-17.63 291.72-24.15Q293.68-25.42 296.07-26.16 298.46-26.9 301.39-26.9L301.39-26.9Q306.42-26.9 309.31-24.55 312.21-22.19 312.21-17.8L312.21-17.8 312.21-6.15Q312.21-5.62 312.22-5.1 312.23-4.59 312.28-4.1L312.28-4.1 314.97-3.76 314.97 0 306.93 0Q306.69-0.85 306.48-1.66 306.27-2.47 306.18-3.27L306.18-3.27Q304.86-1.61 302.99-0.55 301.12 0.51 298.78 0.51ZM300.17-4.25L300.17-4.25Q302.03-4.25 303.64-5.11 305.25-5.98 306.05-7.3L306.05-7.3 306.05-11.72 301.95-11.72Q299.19-11.72 297.79-10.44 296.39-9.16 296.39-7.45L296.39-7.45Q296.39-5.91 297.36-5.08 298.34-4.25 300.17-4.25ZM327.41 0.46L327.41 0.46Q324.04 0.46 322.16-1.43 320.29-3.32 320.29-7.47L320.29-7.47 320.29-22.02 316.43-22.02 316.43-26.42 320.29-26.42 320.29-32.84 326.41-32.84 326.41-26.42 331.64-26.42 331.64-22.02 326.41-22.02 326.41-7.47Q326.41-5.79 327.11-5.02 327.8-4.25 329-4.25L329-4.25Q329.68-4.25 330.53-4.37 331.37-4.49 331.88-4.61L331.88-4.61 332.52-0.29Q331.44 0.02 330.06 0.24 328.68 0.46 327.41 0.46ZM348.97 0L335.52 0 335.52-3.76 339.18-4.49 339.18-21.9 335.3-22.63 335.3-26.42 345.33-26.42 345.33-4.49 348.97-3.76 348.97 0ZM345.33-32.4L338.93-32.4 338.93-38.09 345.33-38.09 345.33-32.4ZM364.05 0.51L364.05 0.51Q360.25 0.51 357.51-1.2 354.78-2.91 353.31-5.94 351.85-8.98 351.85-12.94L351.85-12.94 351.85-13.45Q351.85-17.38 353.31-20.41 354.78-23.44 357.51-25.17 360.25-26.9 364.01-26.9L364.01-26.9Q367.81-26.9 370.55-25.18 373.28-23.46 374.75-20.43 376.21-17.41 376.21-13.45L376.21-13.45 376.21-12.94Q376.21-8.98 374.75-5.94 373.28-2.91 370.56-1.2 367.84 0.51 364.05 0.51ZM364.05-4.22L364.05-4.22Q366.11-4.22 367.44-5.33 368.77-6.45 369.43-8.41 370.08-10.38 370.08-12.94L370.08-12.94 370.08-13.45Q370.08-15.99 369.43-17.94 368.77-19.9 367.42-21.02 366.08-22.14 364.01-22.14L364.01-22.14Q361.98-22.14 360.64-21.02 359.29-19.9 358.65-17.94 358-15.99 358-13.45L358-13.45 358-12.94Q358-10.38 358.65-8.41 359.29-6.45 360.65-5.33 362-4.22 364.05-4.22ZM392.62 0L379.46 0 379.46-3.76 383.12-4.49 383.12-21.9 379.26-22.63 379.26-26.42 388.78-26.42 389.1-22.58Q390.42-24.63 392.38-25.77 394.35-26.9 396.84-26.9L396.84-26.9Q400.92-26.9 403.19-24.4 405.46-21.9 405.46-16.58L405.46-16.58 405.46-4.49 409.12-3.76 409.12 0 395.86 0 395.86-3.76 399.31-4.49 399.31-16.53Q399.31-19.53 398.11-20.79 396.91-22.05 394.55-22.05L394.55-22.05Q392.76-22.05 391.43-21.25 390.1-20.46 389.27-19.04L389.27-19.04 389.27-4.49 392.62-3.76 392.62 0ZM437.31 0L424.06 0 424.06-3.76 427.74-4.49 427.74-21.9 423.86-22.63 423.86-26.42 433.38-26.42 433.68-22.95Q434.97-24.83 436.91-25.87 438.85-26.9 441.42-26.9L441.42-26.9Q444-26.9 445.85-25.74 447.69-24.58 448.64-22.24L448.64-22.24Q449.86-24.41 451.85-25.66 453.84-26.9 456.53-26.9L456.53-26.9Q460.51-26.9 462.79-24.19 465.07-21.48 465.07-15.99L465.07-15.99 465.07-4.49 468.76-3.76 468.76 0 455.45 0 455.45-3.76 458.92-4.49 458.92-16.02Q458.92-19.36 457.8-20.7 456.67-22.05 454.5-22.05L454.5-22.05Q452.47-22.05 451.17-20.75 449.86-19.46 449.47-17.46L449.47-17.46 449.47-4.49 452.82-3.76 452.82 0 440 0 440-3.76 443.34-4.49 443.34-16.02Q443.34-19.24 442.2-20.64 441.05-22.05 438.88-22.05L438.88-22.05Q437.07-22.05 435.84-21.31 434.6-20.58 433.87-19.24L433.87-19.24 433.87-4.49 437.31-3.76 437.31 0ZM483.72 0.51L483.72 0.51Q479.99 0.51 477.22-1.16 474.44-2.83 472.92-5.79 471.39-8.74 471.39-12.55L471.39-12.55 471.39-13.57Q471.39-17.43 472.89-20.45 474.4-23.46 477.03-25.18 479.67-26.9 483.04-26.9L483.04-26.9Q486.63-26.9 489.06-25.46 491.49-24.02 492.73-21.37 493.98-18.73 493.98-15.01L493.98-15.01 493.98-11.5 477.77-11.5 477.72-11.38Q477.81-9.3 478.58-7.69 479.35-6.08 480.78-5.15 482.21-4.22 484.26-4.22L484.26-4.22Q486.41-4.22 488.17-4.81 489.92-5.4 491.41-6.47L491.41-6.47 493.34-2.61Q491.78-1.29 489.36-0.39 486.94 0.51 483.72 0.51ZM477.79-15.94L477.86-15.82 488.09-15.82 488.09-16.46Q488.09-18.19 487.57-19.49 487.04-20.8 485.93-21.53 484.82-22.27 483.11-22.27L483.11-22.27Q481.62-22.27 480.5-21.44 479.38-20.61 478.71-19.18 478.03-17.75 477.79-15.94L477.79-15.94ZM510.21 0.51L510.21 0.51Q506.47 0.51 503.7-1.16 500.93-2.83 499.41-5.79 497.88-8.74 497.88-12.55L497.88-12.55 497.88-13.57Q497.88-17.43 499.38-20.45 500.88-23.46 503.52-25.18 506.16-26.9 509.53-26.9L509.53-26.9Q513.11-26.9 515.54-25.46 517.97-24.02 519.22-21.37 520.46-18.73 520.46-15.01L520.46-15.01 520.46-11.5 504.25-11.5 504.2-11.38Q504.3-9.3 505.07-7.69 505.84-6.08 507.27-5.15 508.7-4.22 510.75-4.22L510.75-4.22Q512.89-4.22 514.65-4.81 516.41-5.4 517.9-6.47L517.9-6.47 519.83-2.61Q518.27-1.29 515.85-0.39 513.43 0.51 510.21 0.51ZM504.28-15.94L504.35-15.82 514.58-15.82 514.58-16.46Q514.58-18.19 514.05-19.49 513.53-20.8 512.42-21.53 511.31-22.27 509.6-22.27L509.6-22.27Q508.11-22.27 506.99-21.44 505.86-20.61 505.19-19.18 504.52-17.75 504.28-15.94L504.28-15.94ZM533.89 0.46L533.89 0.46Q530.52 0.46 528.64-1.43 526.76-3.32 526.76-7.47L526.76-7.47 526.76-22.02 522.9-22.02 522.9-26.42 526.76-26.42 526.76-32.84 532.89-32.84 532.89-26.42 538.11-26.42 538.11-22.02 532.89-22.02 532.89-7.47Q532.89-5.79 533.58-5.02 534.28-4.25 535.47-4.25L535.47-4.25Q536.16-4.25 537-4.37 537.84-4.49 538.36-4.61L538.36-4.61 538.99-0.29Q537.92 0.02 536.54 0.24 535.16 0.46 533.89 0.46ZM552.9 0.51L552.9 0.51Q550.07 0.51 547.62-0.04 545.16-0.59 542.7-1.66L542.7-1.66 542.63-8.64 547.04-8.64 547.97-4.83Q549.02-4.37 550.13-4.11 551.24-3.86 552.61-3.86L552.61-3.86Q555.25-3.86 556.33-4.79 557.42-5.71 557.42-7.08L557.42-7.08Q557.42-8.4 556.29-9.34 555.15-10.28 551.95-10.96L551.95-10.96Q547.22-11.99 544.98-13.95 542.75-15.92 542.75-19.07L542.75-19.07Q542.75-21.24 543.91-23 545.07-24.76 547.33-25.82 549.58-26.88 552.88-26.88L552.88-26.88Q555.88-26.88 558.21-26.26 560.55-25.63 562.18-24.61L562.18-24.61 562.33-17.9 557.96-17.9 557.2-21.39Q556.44-21.92 555.44-22.22 554.44-22.51 553.15-22.51L553.15-22.51Q551.12-22.51 549.95-21.62 548.78-20.73 548.78-19.38L548.78-19.38Q548.78-18.6 549.16-17.97 549.53-17.33 550.62-16.81 551.71-16.28 553.81-15.8L553.81-15.8Q558.96-14.6 561.18-12.67 563.4-10.74 563.4-7.57L563.4-7.57Q563.4-4.03 560.81-1.76 558.23 0.51 552.9 0.51ZM601.61 0L587.69 0 587.69-3.76 591.57-4.49 591.57-30.83 584.42-30.83 583.88-26.29 579.27-26.29 579.27-35.55 610.05-35.55 610.05-26.29 605.41-26.29 604.88-30.83 597.72-30.83 597.72-4.49 601.61-3.76 601.61 0ZM623.5 0.51L623.5 0.51Q619.77 0.51 617-1.16 614.22-2.83 612.7-5.79 611.17-8.74 611.17-12.55L611.17-12.55 611.17-13.57Q611.17-17.43 612.67-20.45 614.18-23.46 616.81-25.18 619.45-26.9 622.82-26.9L622.82-26.9Q626.41-26.9 628.84-25.46 631.27-24.02 632.51-21.37 633.76-18.73 633.76-15.01L633.76-15.01 633.76-11.5 617.55-11.5 617.5-11.38Q617.59-9.3 618.36-7.69 619.13-6.08 620.56-5.15 621.99-4.22 624.04-4.22L624.04-4.22Q626.19-4.22 627.95-4.81 629.7-5.4 631.19-6.47L631.19-6.47 633.12-2.61Q631.56-1.29 629.14-0.39 626.72 0.51 623.5 0.51ZM617.57-15.94L617.64-15.82 627.87-15.82 627.87-16.46Q627.87-18.19 627.35-19.49 626.82-20.8 625.71-21.53 624.6-22.27 622.89-22.27L622.89-22.27Q621.4-22.27 620.28-21.44 619.16-20.61 618.48-19.18 617.81-17.75 617.57-15.94L617.57-15.94ZM649.87 0.51L649.87 0.51Q646.16 0.51 643.43-1.18 640.71-2.88 639.23-5.87 637.76-8.86 637.76-12.77L637.76-12.77 637.76-13.62Q637.76-17.46 639.22-20.46 640.69-23.46 643.41-25.18 646.13-26.9 649.84-26.9L649.84-26.9Q653.24-26.9 655.75-25.82 658.27-24.73 659.88-23.12L659.88-23.12 659.9-16.06 655.21-16.06 654.31-20.73Q653.63-21.44 652.58-21.86 651.53-22.29 650.28-22.29L650.28-22.29Q648.26-22.29 646.83-21.19 645.4-20.09 644.65-18.15 643.91-16.21 643.91-13.62L643.91-13.62 643.91-12.77Q643.91-9.99 644.67-8.08 645.42-6.18 646.78-5.2 648.13-4.22 649.89-4.22L649.89-4.22Q652.02-4.22 653.35-5.37 654.68-6.52 655.09-8.54L655.09-8.54 660.41-8.54 660.49-8.4Q660.19-5.81 658.96-3.8 657.73-1.78 655.49-0.63 653.26 0.51 649.87 0.51ZM676.7 0L663.44 0 663.44-3.76 667.1-4.49 667.1-33.57 663.22-34.3 663.22-38.09 673.23-38.09 673.23-23Q674.52-24.85 676.43-25.88 678.33-26.9 680.72-26.9L680.72-26.9Q684.8-26.9 687.13-24.3 689.46-21.7 689.46-16.28L689.46-16.28 689.46-4.49 693.13-3.76 693.13 0 679.87 0 679.87-3.76 683.34-4.49 683.34-16.33Q683.34-19.36 682.12-20.7 680.89-22.05 678.53-22.05L678.53-22.05Q676.84-22.05 675.49-21.3 674.13-20.56 673.23-19.21L673.23-19.21 673.23-4.49 676.7-3.76 676.7 0ZM708.85 0L695.69 0 695.69-3.76 699.35-4.49 699.35-21.9 695.49-22.63 695.49-26.42 705.01-26.42 705.33-22.58Q706.65-24.63 708.61-25.77 710.58-26.9 713.07-26.9L713.07-26.9Q717.15-26.9 719.42-24.4 721.69-21.9 721.69-16.58L721.69-16.58 721.69-4.49 725.35-3.76 725.35 0 712.09 0 712.09-3.76 715.54-4.49 715.54-16.53Q715.54-19.53 714.34-20.79 713.14-22.05 710.77-22.05L710.77-22.05Q708.99-22.05 707.66-21.25 706.33-20.46 705.5-19.04L705.5-19.04 705.5-4.49 708.85-3.76 708.85 0ZM740.14 0.51L740.14 0.51Q736.33 0.51 733.6-1.2 730.87-2.91 729.4-5.94 727.94-8.98 727.94-12.94L727.94-12.94 727.94-13.45Q727.94-17.38 729.4-20.41 730.87-23.44 733.6-25.17 736.33-26.9 740.09-26.9L740.09-26.9Q743.9-26.9 746.64-25.18 749.37-23.46 750.84-20.43 752.3-17.41 752.3-13.45L752.3-13.45 752.3-12.94Q752.3-8.98 750.84-5.94 749.37-2.91 746.65-1.2 743.93 0.51 740.14 0.51ZM740.14-4.22L740.14-4.22Q742.19-4.22 743.52-5.33 744.85-6.45 745.51-8.41 746.17-10.38 746.17-12.94L746.17-12.94 746.17-13.45Q746.17-15.99 745.51-17.94 744.85-19.9 743.51-21.02 742.17-22.14 740.09-22.14L740.09-22.14Q738.07-22.14 736.72-21.02 735.38-19.9 734.73-17.94 734.09-15.99 734.09-13.45L734.09-13.45 734.09-12.94Q734.09-10.38 734.73-8.41 735.38-6.45 736.74-5.33 738.09-4.22 740.14-4.22ZM768.39 0L754.89 0 754.89-3.76 758.57-4.49 758.57-33.57 754.67-34.3 754.67-38.09 764.7-38.09 764.7-4.49 768.39-3.76 768.39 0ZM782.98 0.51L782.98 0.51Q779.18 0.51 776.44-1.2 773.71-2.91 772.24-5.94 770.78-8.98 770.78-12.94L770.78-12.94 770.78-13.45Q770.78-17.38 772.24-20.41 773.71-23.44 776.44-25.17 779.18-26.9 782.94-26.9L782.94-26.9Q786.74-26.9 789.48-25.18 792.21-23.46 793.68-20.43 795.14-17.41 795.14-13.45L795.14-13.45 795.14-12.94Q795.14-8.98 793.68-5.94 792.21-2.91 789.49-1.2 786.77 0.51 782.98 0.51ZM782.98-4.22L782.98-4.22Q785.03-4.22 786.37-5.33 787.7-6.45 788.36-8.41 789.01-10.38 789.01-12.94L789.01-12.94 789.01-13.45Q789.01-15.99 788.36-17.94 787.7-19.9 786.35-21.02 785.01-22.14 782.94-22.14L782.94-22.14Q780.91-22.14 779.57-21.02 778.22-19.9 777.58-17.94 776.93-15.99 776.93-13.45L776.93-13.45 776.93-12.94Q776.93-10.38 777.58-8.41 778.22-6.45 779.58-5.33 780.93-4.22 782.98-4.22ZM810.69 10.67L810.69 10.67Q808.74 10.67 806.36 10.14 803.98 9.62 802.17 8.69L802.17 8.69 803.44 4.2Q805 4.91 806.88 5.35 808.76 5.79 810.45 5.79L810.45 5.79Q813.47 5.79 814.88 4.11 816.28 2.44 816.28-0.61L816.28-0.61 816.28-2.69Q815.06-1.12 813.38-0.31 811.69 0.51 809.52 0.51L809.52 0.51Q806.3 0.51 803.97-1.1 801.63-2.71 800.4-5.62 799.17-8.52 799.17-12.35L799.17-12.35 799.17-12.87Q799.17-17.09 800.4-20.24 801.63-23.39 803.94-25.15 806.25-26.9 809.45-26.9L809.45-26.9Q811.86-26.9 813.65-25.92 815.43-24.93 816.67-23.1L816.67-23.1 817.14-26.42 822.43-26.42 822.43-0.59Q822.43 2.86 821.04 5.38 819.65 7.91 817.01 9.29 814.38 10.67 810.69 10.67ZM811.18-4.35L811.18-4.35Q812.96-4.35 814.22-5.1 815.48-5.86 816.28-7.3L816.28-7.3 816.28-19.07Q815.48-20.46 814.21-21.25 812.94-22.05 811.2-22.05L811.2-22.05Q809.18-22.05 807.87-20.89 806.57-19.73 805.94-17.66 805.32-15.6 805.32-12.87L805.32-12.87 805.32-12.35Q805.32-8.69 806.72-6.52 808.13-4.35 811.18-4.35ZM825.61-22.63L821.6-21.78 819.02-26.42 825.61-26.42 825.61-22.63ZM834.54 10.67L834.54 10.67Q833.78 10.67 832.8 10.52 831.81 10.38 831.07 10.16L831.07 10.16 831.76 5.54Q832.2 5.62 832.82 5.66 833.44 5.71 833.81 5.71L833.81 5.71Q835.35 5.71 836.4 4.75 837.45 3.78 838.11 2.08L838.11 2.08 838.91-0.05 829.88-22.19 826.8-22.63 826.8-26.42 839.6-26.42 839.6-22.63 836.35-22.14 840.94-9.84 841.74-7.54 841.89-7.54 847.31-22.17 844.06-22.63 844.06-26.42 856.2-26.42 856.2-22.63 853.34-22.22 843.11 3.98Q842.38 5.83 841.29 7.36 840.21 8.89 838.56 9.78 836.91 10.67 834.54 10.67Z" opacity="1" transform="matrix(1,0,0,1,0,0)" fill="#0063db" class="slogan-text-1" data-fill-palette-color="secondary" id="text-1"></path></svg></g></svg></g></svg></g></svg></g></svg></g><defs></defs></svg><rect width="264.03674875992294" height="280" fill="none" stroke="none" visibility="hidden"></rect></g></svg></g></svg>